<?xml version="1.0" encoding="UTF-8" standalone="no"?>
<!-- Created with Inkscape (http://www.inkscape.org/) -->

<svg
   xmlns:dc="http://purl.org/dc/elements/1.1/"
   xmlns:cc="http://creativecommons.org/ns#"
   xmlns:rdf="http://www.w3.org/1999/02/22-rdf-syntax-ns#"
   xmlns:svg="http://www.w3.org/2000/svg"
   xmlns="http://www.w3.org/2000/svg"
   xmlns:xlink="http://www.w3.org/1999/xlink"
   xmlns:sodipodi="http://sodipodi.sourceforge.net/DTD/sodipodi-0.dtd"
   xmlns:inkscape="http://www.inkscape.org/namespaces/inkscape"
   id="svg4486"
   height="19"
   viewBox="0 0 19 19"
   width="19"
   version="1.1"
   inkscape:version="0.48.4 r9939"
   sodipodi:docname="unmaximize_focused_pressed.svg">
  <defs
     id="defs10">
    <linearGradient
       inkscape:collect="always"
       xlink:href="#linearGradient4297"
       id="linearGradient3844"
       gradientUnits="userSpaceOnUse"
       gradientTransform="matrix(0,-1,1,0,-290.21429,-530.49914)"
       x1="-1070.3622"
       y1="8.9999962"
       x2="-1055.3622"
       y2="8.9999962" />
    <linearGradient
       inkscape:collect="always"
       id="linearGradient4297">
      <stop
         style="stop-color:#ffffff;stop-opacity:1;"
         offset="0"
         id="stop4523" />
      <stop
         style="stop-color:#000000;stop-opacity:1"
         offset="1"
         id="stop4525" />
    </linearGradient>
    <linearGradient
       inkscape:collect="always"
       xlink:href="#linearGradient4297"
       id="linearGradient3846"
       gradientUnits="userSpaceOnUse"
       gradientTransform="matrix(0,-1.0357118,1.0357118,0,-290.55355,-568.45584)"
       x1="-1070.1036"
       y1="9.4999952"
       x2="-1055.6208"
       y2="9.4999952" />
    <linearGradient
       y2="9.4999952"
       x2="-1055.6208"
       y1="9.4999952"
       x1="-1070.1036"
       gradientTransform="matrix(0,-1.0357118,1.0357118,0,-290.55355,-568.45584)"
       gradientUnits="userSpaceOnUse"
       id="linearGradient4023"
       xlink:href="#linearGradient4297"
       inkscape:collect="always" />
  </defs>
  <sodipodi:namedview
     pagecolor="#353535"
     bordercolor="#666666"
     borderopacity="1"
     objecttolerance="10"
     gridtolerance="10"
     guidetolerance="10"
     inkscape:pageopacity="1"
     inkscape:pageshadow="2"
     inkscape:window-width="809"
     inkscape:window-height="715"
     id="namedview8"
     showgrid="false"
     inkscape:zoom="12.421053"
     inkscape:cx="-16.34322"
     inkscape:cy="9.5000012"
     inkscape:window-x="555"
     inkscape:window-y="25"
     inkscape:window-maximized="0"
     inkscape:current-layer="svg4486" />
  <metadata
     id="metadata4491">
    <rdf:RDF>
      <cc:Work
         rdf:about="">
        <dc:format>image/svg+xml</dc:format>
        <dc:type
           rdf:resource="http://purl.org/dc/dcmitype/StillImage" />
        <dc:title />
      </cc:Work>
    </rdf:RDF>
  </metadata>
  <path
     inkscape:connector-curvature="0"
     style="fill:#6fd0ba;fill-opacity:1;stroke:none;opacity:0.69999999999999996"
     d="M 9.5000002,1.9999998 C 5.3629344,1.9999998 2,5.3629342 2,9.5 2,13.637066 5.3629344,17 9.5000002,17 13.637066,17 17,13.637066 17,9.5 17,5.3629342 13.637066,1.9999998 9.5000002,1.9999998 z m -0.2790699,3.5232559 3.1744187,0 c 0.58587,0 1.081396,0.4955251 1.081396,1.0813954 l 0,3.1744187 c 0,0.5858702 -0.495526,1.0465112 -1.081396,1.0465112 l -0.697675,0 0,0.697675 c 0,0.585871 -0.460641,1.046512 -1.046511,1.046512 l -3.1744187,0 c -0.5858703,0 -1.0465116,-0.460641 -1.0465116,-1.046512 l 0,-3.1744189 c 0,-0.5858702 0.4606413,-1.0465116 1.0465116,-1.0465116 l 0.6976744,0 0,-0.6976744 c 0,-0.5858703 0.4606413,-1.0813954 1.0465116,-1.0813954 z"
     id="path2996" />
  <path
     inkscape:connector-curvature="0"
     style="opacity:0.5;fill:#ffffff;fill-opacity:1;stroke:none"
     d="m 9.2437543,5.5231452 3.1725817,0 c 0.585871,0 1.057527,0.4716573 1.057527,1.0575275 l 0,3.172583 c 0,0.5858683 -0.471656,1.0575263 -1.057527,1.0575263 l -3.1725817,0 c -0.5858715,0 -1.0575283,-0.471658 -1.0575283,-1.0575263 l 0,-3.1725829 c 0,-0.5858703 0.4716568,-1.0575275 1.0575283,-1.0575275 z"
     id="rect3766-2-8" />
</svg>
