<?xml version="1.0" encoding="UTF-8" standalone="no"?>
<!-- Created with Inkscape (http://www.inkscape.org/) -->

<svg
   xmlns:dc="http://purl.org/dc/elements/1.1/"
   xmlns:cc="http://creativecommons.org/ns#"
   xmlns:rdf="http://www.w3.org/1999/02/22-rdf-syntax-ns#"
   xmlns:svg="http://www.w3.org/2000/svg"
   xmlns="http://www.w3.org/2000/svg"
   xmlns:sodipodi="http://sodipodi.sourceforge.net/DTD/sodipodi-0.dtd"
   xmlns:inkscape="http://www.inkscape.org/namespaces/inkscape"
   id="svg4486"
   height="19"
   viewBox="0 0 19 19"
   width="19"
   version="1.1"
   inkscape:version="0.48.4 r9939"
   sodipodi:docname="unmaximize_focused_prelight.svg">
  <sodipodi:namedview
     pagecolor="#3b3b3b"
     bordercolor="#666666"
     borderopacity="1"
     objecttolerance="10"
     gridtolerance="10"
     guidetolerance="10"
     inkscape:pageopacity="1"
     inkscape:pageshadow="2"
     inkscape:window-width="683"
     inkscape:window-height="716"
     id="namedview12"
     showgrid="false"
     inkscape:zoom="22.627417"
     inkscape:cx="1.5078674"
     inkscape:cy="11.77805"
     inkscape:window-x="0"
     inkscape:window-y="24"
     inkscape:window-maximized="0"
     inkscape:current-layer="svg4486" />
  <defs
     id="defs4488">
    <filter
       id="filter4405"
       style="color-interpolation-filters:sRGB"
       height="1.24"
       width="1.24"
       y="-.12"
       x="-.12">
      <feGaussianBlur
         id="feGaussianBlur4407"
         stdDeviation="0.75" />
    </filter>
  </defs>
  <metadata
     id="metadata4491">
    <rdf:RDF>
      <cc:Work
         rdf:about="">
        <dc:format>image/svg+xml</dc:format>
        <dc:type
           rdf:resource="http://purl.org/dc/dcmitype/StillImage" />
        <dc:title />
      </cc:Work>
    </rdf:RDF>
  </metadata>
  <path
     inkscape:connector-curvature="0"
     style="fill:#6fd0ba;fill-opacity:1;stroke:none"
     d="m 9.5,1.4999998 c -4.4128702,0 -8.0000002,3.58713 -8.0000002,8.0000002 0,4.41287 3.58713,8 8.0000002,8 4.41287,0 8,-3.58713 8,-8 0,-4.4128702 -3.58713,-8.0000002 -8,-8.0000002 z m -0.2976745,3.7581396 3.3860465,0 c 0.624928,0 1.153489,0.5285601 1.153489,1.1534884 l 0,3.3860466 c 0,0.6249286 -0.528561,1.1162786 -1.153489,1.1162786 l -0.744186,0 0,0.744187 c 0,0.624929 -0.491351,1.116279 -1.116279,1.116279 l -3.3860466,0 c -0.6249283,0 -1.1162791,-0.49135 -1.1162791,-1.116279 l 0,-3.3860471 c 0,-0.6249282 0.4913508,-1.116279 1.1162791,-1.116279 l 0.744186,0 0,-0.7441861 c 0,-0.6249283 0.4913507,-1.1534884 1.1162791,-1.1534884 z"
     id="path2996" />
  <path
     inkscape:connector-curvature="0"
     style="opacity:0.50000000000000000;fill:#ffffff;fill-opacity:1;stroke:none"
     d="m 9.226671,5.2580215 3.384087,0 c 0.624929,0 1.128029,0.5031012 1.128029,1.1280294 l 0,3.3840885 c 0,0.6249266 -0.5031,1.1280276 -1.128029,1.1280276 l -3.384087,0 c -0.6249295,0 -1.1280301,-0.503101 -1.1280301,-1.1280276 l 0,-3.3840884 c 0,-0.6249283 0.5031006,-1.1280294 1.1280301,-1.1280294 z"
     id="rect3766-2-8" />
</svg>
