<?xml version="1.0" encoding="UTF-8" standalone="no"?>
<!-- Created with Inkscape (http://www.inkscape.org/) -->

<svg
   xmlns:dc="http://purl.org/dc/elements/1.1/"
   xmlns:cc="http://creativecommons.org/ns#"
   xmlns:rdf="http://www.w3.org/1999/02/22-rdf-syntax-ns#"
   xmlns:svg="http://www.w3.org/2000/svg"
   xmlns="http://www.w3.org/2000/svg"
   xmlns:xlink="http://www.w3.org/1999/xlink"
   xmlns:sodipodi="http://sodipodi.sourceforge.net/DTD/sodipodi-0.dtd"
   xmlns:inkscape="http://www.inkscape.org/namespaces/inkscape"
   width="19"
   height="19"
   id="svg4486"
   version="1.1"
   inkscape:version="0.48.4 r9939"
   viewBox="0 0 19 19"
   sodipodi:docname="close_focused_prelight.svg">
  <defs
     id="defs4488">
    <linearGradient
       inkscape:collect="always"
       xlink:href="#linearGradient4297"
       id="linearGradient3001"
       gradientUnits="userSpaceOnUse"
       gradientTransform="matrix(0,-1.1738067,1.1738067,0,-291.86545,-732.98154)"
       x1="-1070.1036"
       y1="9.4999952"
       x2="-1055.6208"
       y2="9.4999952" />
    <linearGradient
       inkscape:collect="always"
       id="linearGradient4297">
      <stop
         style="stop-color:#ffffff;stop-opacity:1;"
         offset="0"
         id="stop4523" />
      <stop
         style="stop-color:#000000;stop-opacity:1"
         offset="1"
         id="stop4525" />
    </linearGradient>
    <linearGradient
       inkscape:collect="always"
       xlink:href="#linearGradient4297"
       id="linearGradient3004"
       gradientUnits="userSpaceOnUse"
       gradientTransform="matrix(0,-1,1,0,-287.35713,-530.50002)"
       x1="-1070.3622"
       y1="8.9999962"
       x2="-1055.3622"
       y2="8.9999962" />
    <linearGradient
       y2="8.9999962"
       x2="-1055.3622"
       y1="8.9999962"
       x1="-1070.3622"
       gradientTransform="matrix(0,-1.1333333,1.1333333,0,-291.48096,-689.96395)"
       gradientUnits="userSpaceOnUse"
       id="linearGradient3021"
       xlink:href="#linearGradient4297"
       inkscape:collect="always" />
  </defs>
  <sodipodi:namedview
     id="base"
     pagecolor="#ffffff"
     bordercolor="#666666"
     borderopacity="1.0"
     inkscape:pageopacity="0.0"
     inkscape:pageshadow="2"
     inkscape:zoom="16"
     inkscape:cx="4.8977594"
     inkscape:cy="6.21073"
     inkscape:document-units="px"
     inkscape:current-layer="layer1"
     showgrid="false"
     fit-margin-top="0"
     fit-margin-left="0"
     fit-margin-right="0"
     fit-margin-bottom="0"
     inkscape:window-width="681"
     inkscape:window-height="715"
     inkscape:window-x="10"
     inkscape:window-y="25"
     inkscape:window-maximized="0" />
  <metadata
     id="metadata4491">
    <rdf:RDF>
      <cc:Work
         rdf:about="">
        <dc:format>image/svg+xml</dc:format>
        <dc:type
           rdf:resource="http://purl.org/dc/dcmitype/StillImage" />
        <dc:title />
      </cc:Work>
    </rdf:RDF>
  </metadata>
  <g
     inkscape:label="Layer 1"
     inkscape:groupmode="layer"
     id="layer1"
     transform="translate(290.21429,-522.86219)">
    <path
       style="color:#000000;fill:#d63f5b;fill-opacity:1;fill-rule:nonzero;stroke:none;stroke-width:8;marker:none;visibility:visible;display:inline;overflow:visible;enable-background:accumulate"
       d="m -280.71429,524.36219 a 7.9999754,7.9999804 0 0 0 -8,8 7.9999754,7.9999804 0 0 0 8,8 7.9999754,7.9999804 0 0 0 8,-8 7.9999754,7.9999804 0 0 0 -8,-8 z m 2.70588,4.32353 c 0.20756,0.0385 0.43331,0.16859 0.61765,0.35294 0.36869,0.36869 0.47087,0.88206 0.20588,1.14706 l -2.17647,2.17647 2.17647,2.17647 c 0.265,0.26501 0.16281,0.77837 -0.20588,1.14706 -0.36869,0.36869 -0.88205,0.47088 -1.14706,0.20588 l -2.17647,-2.17647 -2.17647,2.17647 c -0.26501,0.265 -0.77837,0.16281 -1.14706,-0.20588 -0.36869,-0.36869 -0.47088,-0.88205 -0.20588,-1.14706 l 2.17647,-2.17647 -2.17647,-2.17647 c -0.265,-0.26501 -0.16281,-0.77837 0.20588,-1.14706 0.18435,-0.18435 0.4109,-0.28974 0.61765,-0.32353 0.20674,-0.0339 0.39691,-0.0148 0.52941,0.11765 l 2.17647,2.17647 2.17647,-2.17647 c 0.1325,-0.13249 0.32186,-0.18557 0.52941,-0.14706 z"
       id="path4133"
       inkscape:connector-curvature="0" />
    <rect
       y="522.36218"
       x="-290.71429"
       height="20"
       width="20"
       id="rect4135"
       style="color:#000000;fill:none;stroke:none;stroke-width:1;marker:none;visibility:visible;display:inline;overflow:visible;enable-background:accumulate" />
  </g>
</svg>
