<?xml version="1.0" encoding="UTF-8" standalone="no"?>
<!-- Created with Inkscape (http://www.inkscape.org/) -->

<svg
   xmlns:dc="http://purl.org/dc/elements/1.1/"
   xmlns:cc="http://creativecommons.org/ns#"
   xmlns:rdf="http://www.w3.org/1999/02/22-rdf-syntax-ns#"
   xmlns:svg="http://www.w3.org/2000/svg"
   xmlns="http://www.w3.org/2000/svg"
   xmlns:sodipodi="http://sodipodi.sourceforge.net/DTD/sodipodi-0.dtd"
   xmlns:inkscape="http://www.inkscape.org/namespaces/inkscape"
   width="19"
   height="19"
   id="svg4486"
   version="1.1"
   inkscape:version="0.48.4 r9939"
   viewBox="0 0 19 19"
   sodipodi:docname="maximize_unfocused_prelight.svg">
  <defs
     id="defs4488" />
  <sodipodi:namedview
     id="base"
     pagecolor="#5f5f5f"
     bordercolor="#666666"
     borderopacity="1.0"
     inkscape:pageopacity="1"
     inkscape:pageshadow="2"
     inkscape:zoom="8"
     inkscape:cx="-40.548526"
     inkscape:cy="3.5471168"
     inkscape:document-units="px"
     inkscape:current-layer="layer1"
     showgrid="false"
     fit-margin-top="0"
     fit-margin-left="0"
     fit-margin-right="0"
     fit-margin-bottom="0"
     inkscape:window-width="1366"
     inkscape:window-height="744"
     inkscape:window-x="0"
     inkscape:window-y="24"
     inkscape:window-maximized="1" />
  <metadata
     id="metadata4491">
    <rdf:RDF>
      <cc:Work
         rdf:about="">
        <dc:format>image/svg+xml</dc:format>
        <dc:type
           rdf:resource="http://purl.org/dc/dcmitype/StillImage" />
        <dc:title />
      </cc:Work>
    </rdf:RDF>
  </metadata>
  <g
     inkscape:label="Layer 1"
     inkscape:groupmode="layer"
     id="layer1"
     transform="translate(290.21429,-522.86219)">
    <path
       style="color:#000000;fill:#6fd0ba;fill-opacity:1;fill-rule:nonzero;stroke:none;stroke-width:8;marker:none;visibility:visible;display:inline;overflow:visible;enable-background:accumulate"
       d="m -280.71429,524.23719 a 7.9999782,7.9999782 0 0 0 -8,8 7.9999782,7.9999782 0 0 0 8,8 7.9999782,7.9999782 0 0 0 8,-8 7.9999782,7.9999782 0 0 0 -8,-8 z m -2.4,3.73333 5.46667,0 c 0.6648,0 1.2,0.5352 1.2,1.2 l 0,5.46667 -6.66667,-6.66667 z m -1.86667,1.86667 6.66667,6.66667 -5.46667,0 c -0.6648,0 -1.2,-0.5352 -1.2,-1.2 l 0,-5.46667 z"
       id="path4224"
       inkscape:connector-curvature="0" />
    <rect
       style="color:#000000;fill:none;stroke:none;stroke-width:1;marker:none;visibility:visible;display:inline;overflow:visible;enable-background:accumulate"
       id="rect4226"
       width="19"
       height="19"
       x="-290.21429"
       y="522.86218" />
  </g>
</svg>
