<?xml version="1.0" encoding="UTF-8" standalone="no"?>
<!-- Created with Inkscape (http://www.inkscape.org/) -->

<svg
   xmlns:dc="http://purl.org/dc/elements/1.1/"
   xmlns:cc="http://creativecommons.org/ns#"
   xmlns:rdf="http://www.w3.org/1999/02/22-rdf-syntax-ns#"
   xmlns:svg="http://www.w3.org/2000/svg"
   xmlns="http://www.w3.org/2000/svg"
   xmlns:xlink="http://www.w3.org/1999/xlink"
   xmlns:sodipodi="http://sodipodi.sourceforge.net/DTD/sodipodi-0.dtd"
   xmlns:inkscape="http://www.inkscape.org/namespaces/inkscape"
   id="svg4486"
   height="19"
   viewBox="0 0 19 19"
   width="19"
   version="1.1"
   inkscape:version="0.48.4 r9939"
   sodipodi:docname="unmaximize_unfocused_pressed.svg">
  <defs
     id="defs10">
    <linearGradient
       inkscape:collect="always"
       xlink:href="#linearGradient4297"
       id="linearGradient3844"
       gradientUnits="userSpaceOnUse"
       gradientTransform="matrix(0,-1,1,0,-290.21429,-530.49914)"
       x1="-1070.3622"
       y1="8.9999962"
       x2="-1055.3622"
       y2="8.9999962" />
    <linearGradient
       inkscape:collect="always"
       id="linearGradient4297">
      <stop
         style="stop-color:#ffffff;stop-opacity:1;"
         offset="0"
         id="stop4523" />
      <stop
         style="stop-color:#000000;stop-opacity:1"
         offset="1"
         id="stop4525" />
    </linearGradient>
    <linearGradient
       inkscape:collect="always"
       xlink:href="#linearGradient4297"
       id="linearGradient3846"
       gradientUnits="userSpaceOnUse"
       gradientTransform="matrix(0,-1.0357118,1.0357118,0,-290.55355,-568.45584)"
       x1="-1070.1036"
       y1="9.4999952"
       x2="-1055.6208"
       y2="9.4999952" />
    <linearGradient
       y2="9.4999952"
       x2="-1055.6208"
       y1="9.4999952"
       x1="-1070.1036"
       gradientTransform="matrix(0,-1.0357118,1.0357118,0,-290.55355,-568.45584)"
       gradientUnits="userSpaceOnUse"
       id="linearGradient4023"
       xlink:href="#linearGradient4297"
       inkscape:collect="always" />
  </defs>
  <sodipodi:namedview
     pagecolor="#353535"
     bordercolor="#666666"
     borderopacity="1"
     objecttolerance="10"
     gridtolerance="10"
     guidetolerance="10"
     inkscape:pageopacity="1"
     inkscape:pageshadow="2"
     inkscape:window-width="809"
     inkscape:window-height="715"
     id="namedview8"
     showgrid="false"
     inkscape:zoom="12.421053"
     inkscape:cx="-6.3199145"
     inkscape:cy="7.2691408"
     inkscape:window-x="555"
     inkscape:window-y="25"
     inkscape:window-maximized="0"
     inkscape:current-layer="svg4486" />
  <metadata
     id="metadata4491">
    <rdf:RDF>
      <cc:Work
         rdf:about="">
        <dc:format>image/svg+xml</dc:format>
        <dc:type
           rdf:resource="http://purl.org/dc/dcmitype/StillImage" />
        <dc:title />
      </cc:Work>
    </rdf:RDF>
  </metadata>
  <path
     inkscape:connector-curvature="0"
     style="opacity:0.69999999999999996;fill:#6fd0ba;fill-opacity:1;stroke:none"
     d="M 9.5,2 C 5.362934,2 2,5.362934 2,9.5 2,13.637066 5.362934,17 9.5,17 13.637066,17 17,13.637066 17,9.5 17,5.362934 13.637066,2 9.5,2 z m -0.27907,3.523256 3.174419,0 c 0.58587,0 1.081396,0.495525 1.081396,1.081395 l 0,3.174419 c 0,0.58587 -0.495526,1.046511 -1.081396,1.046511 l -0.697675,0 0,0.697675 c 0,0.585871 -0.460641,1.046512 -1.046511,1.046512 l -3.174419,0 c -0.58587,0 -1.046512,-0.460641 -1.046512,-1.046512 l 0,-3.174419 c 0,-0.58587 0.460642,-1.046511 1.046512,-1.046511 l 0.697674,0 0,-0.697675 c 0,-0.58587 0.460642,-1.081395 1.046512,-1.081395 z"
     id="path2996" />
  <path
     inkscape:connector-curvature="0"
     style="opacity:0.5;fill:#ffffff;fill-opacity:1;stroke:none"
     d="m 9.243754,5.523145 3.172582,0 c 0.585871,0 1.057527,0.471658 1.057527,1.057528 l 0,3.172583 c 0,0.585868 -0.471656,1.057526 -1.057527,1.057526 l -3.172582,0 c -0.585872,0 -1.057528,-0.471658 -1.057528,-1.057526 l 0,-3.172583 c 0,-0.58587 0.471656,-1.057527 1.057528,-1.057527 z"
     id="rect3766-2-8" />
</svg>
