<?xml version="1.0" encoding="UTF-8" standalone="no"?>
<svg
   xmlns:dc="http://purl.org/dc/elements/1.1/"
   xmlns:cc="http://creativecommons.org/ns#"
   xmlns:rdf="http://www.w3.org/1999/02/22-rdf-syntax-ns#"
   xmlns:svg="http://www.w3.org/2000/svg"
   xmlns="http://www.w3.org/2000/svg"
   xmlns:sodipodi="http://sodipodi.sourceforge.net/DTD/sodipodi-0.dtd"
   xmlns:inkscape="http://www.inkscape.org/namespaces/inkscape"
   viewBox="0 0 16 16"
   height="16"
   width="16"
   version="1.1"
   id="svg2"
   inkscape:version="0.91 r13725"
   sodipodi:docname="close_focused_normal.svg">
  <sodipodi:namedview
     pagecolor="#ffffff"
     bordercolor="#666666"
     borderopacity="1"
     objecttolerance="10"
     gridtolerance="10"
     guidetolerance="10"
     inkscape:pageopacity="0"
     inkscape:pageshadow="2"
     inkscape:window-width="960"
     inkscape:window-height="1008"
     id="namedview6"
     showgrid="true"
     inkscape:zoom="32"
     inkscape:cx="8.4430183"
     inkscape:cy="5.3375346"
     inkscape:window-x="0"
     inkscape:window-y="0"
     inkscape:window-maximized="0"
     inkscape:current-layer="svg2">
    <inkscape:grid
       type="xygrid"
       id="grid4133" />
  </sodipodi:namedview>
  <metadata
     id="metadata8">
    <rdf:RDF>
      <cc:Work
         rdf:about="">
        <dc:format>image/svg+xml</dc:format>
        <dc:type
           rdf:resource="http://purl.org/dc/dcmitype/StillImage" />
        <dc:title></dc:title>
      </cc:Work>
    </rdf:RDF>
  </metadata>
  <defs
     id="defs6" />
  <path
     style="fill:#d63f5b;fill-opacity:1;fill-rule:evenodd;stroke:none;stroke-width:2.49999952;stroke-linecap:butt;stroke-linejoin:miter;stroke-miterlimit:4;stroke-dasharray:none;stroke-opacity:1"
     d="M 8 1 A 7 7 0 0 0 1 8 A 7 7 0 0 0 8 15 A 7 7 0 0 0 15 8 A 7 7 0 0 0 8 1 z M 10.507812 4.7851562 C 10.688535 4.7851562 10.869336 4.8537096 11.007812 4.9921875 C 11.284769 5.2691433 11.284769 5.7152317 11.007812 5.9921875 L 9 8 L 11 10 C 11.276956 10.276956 11.276956 10.723044 11 11 C 10.723044 11.276956 10.276956 11.276956 10 11 L 8 9 L 6.0078125 10.992188 C 5.7308567 11.269142 5.2847683 11.269142 5.0078125 10.992188 C 4.7308567 10.715232 4.7308567 10.269143 5.0078125 9.9921875 L 7 8 L 5 6 C 4.7230442 5.7230442 4.7230442 5.2769558 5 5 C 5.2769558 4.7230442 5.7230442 4.7230442 6 5 L 8 7 L 10.007812 4.9921875 C 10.14629 4.8537096 10.327091 4.7851562 10.507812 4.7851562 z "
     id="path3338" />
</svg>
