<?xml version="1.0" encoding="UTF-8" standalone="no"?>
<!-- Created with Inkscape (http://www.inkscape.org/) -->

<svg
   xmlns:dc="http://purl.org/dc/elements/1.1/"
   xmlns:cc="http://creativecommons.org/ns#"
   xmlns:rdf="http://www.w3.org/1999/02/22-rdf-syntax-ns#"
   xmlns:svg="http://www.w3.org/2000/svg"
   xmlns="http://www.w3.org/2000/svg"
   xmlns:sodipodi="http://sodipodi.sourceforge.net/DTD/sodipodi-0.dtd"
   xmlns:inkscape="http://www.inkscape.org/namespaces/inkscape"
   id="svg4486"
   height="19"
   viewBox="0 0 19 19"
   width="19"
   version="1.1"
   inkscape:version="0.48.4 r9939"
   sodipodi:docname="close_dash.svg">
  <defs
     id="defs10" />
  <sodipodi:namedview
     pagecolor="#ffffff"
     bordercolor="#666666"
     borderopacity="1"
     objecttolerance="10"
     gridtolerance="10"
     guidetolerance="10"
     inkscape:pageopacity="0"
     inkscape:pageshadow="2"
     inkscape:window-width="866"
     inkscape:window-height="880"
     id="namedview8"
     showgrid="false"
     inkscape:zoom="12.421053"
     inkscape:cx="-5.1525425"
     inkscape:cy="9.3389833"
     inkscape:window-x="562"
     inkscape:window-y="45"
     inkscape:window-maximized="0"
     inkscape:current-layer="g4113" />
  <metadata
     id="metadata4491">
    <rdf:RDF>
      <cc:Work
         rdf:about="">
        <dc:format>image/svg+xml</dc:format>
        <dc:type
           rdf:resource="http://purl.org/dc/dcmitype/StillImage" />
        <dc:title />
      </cc:Work>
    </rdf:RDF>
  </metadata>
  <g
     id="layer1"
     transform="translate(290.21 -522.86)">
    <g
       id="g4113"
       transform="translate(-289.71 -511)">
      <path
         id="circle4507"
         d="m85.5 97.5a7.5 7.5 0 0 0 -7.5 7.5 7.5 7.5 0 0 0 7.5 7.5 7.5 7.5 0 0 0 7.5 -7.5 7.5 7.5 0 0 0 -7.5 -7.5zm-2.5 4.2227 0.38867 0.38867l2.111 2.11 2.111-2.11 0.389-0.39 0.777 0.78-0.388 0.39-2.112 2.11 2.112 2.11 0.388 0.39-0.777 0.78-0.389-0.39-2.111-2.11-2.111 2.11-0.389 0.39-0.777-0.78 0.388-0.39 2.112-2.11-2.112-2.11-0.388-0.39 0.777-0.78z"
         style="color:#000000;fill:#007294;fill-opacity:1"
         transform="translate(-76.5 938.36)" />
      <rect
         id="rect4539"
         style="color:#000000;fill:none"
         height="19"
         width="19"
         y="1033.9"
         x="-0.5" />
    </g>
  </g>
</svg>
