<?xml version="1.0" encoding="UTF-8" standalone="no"?>
<svg
   xmlns:dc="http://purl.org/dc/elements/1.1/"
   xmlns:cc="http://creativecommons.org/ns#"
   xmlns:rdf="http://www.w3.org/1999/02/22-rdf-syntax-ns#"
   xmlns:svg="http://www.w3.org/2000/svg"
   xmlns="http://www.w3.org/2000/svg"
   xmlns:sodipodi="http://sodipodi.sourceforge.net/DTD/sodipodi-0.dtd"
   xmlns:inkscape="http://www.inkscape.org/namespaces/inkscape"
   viewBox="0 0 16 16"
   id="svg2"
   version="1.1"
   inkscape:version="0.91 r13725"
   width="100%"
   height="100%"
   sodipodi:docname="radio-unselected-dark.svg">
  <metadata
     id="metadata16">
    <rdf:RDF>
      <cc:Work
         rdf:about="">
        <dc:format>image/svg+xml</dc:format>
        <dc:type
           rdf:resource="http://purl.org/dc/dcmitype/StillImage" />
        <dc:title />
      </cc:Work>
    </rdf:RDF>
  </metadata>
  <defs
     id="defs14">
    <linearGradient
       id="linearGradient4159">
      <stop
         style="stop-color:#ffffff;stop-opacity:0.50196081"
         offset="0"
         id="stop4161" />
      <stop
         style="stop-color:#000000;stop-opacity:0.2"
         offset="1"
         id="stop4163" />
    </linearGradient>
  </defs>
  <sodipodi:namedview
     pagecolor="#ffffff"
     bordercolor="#666666"
     borderopacity="1"
     objecttolerance="10"
     gridtolerance="10"
     guidetolerance="10"
     inkscape:pageopacity="0"
     inkscape:pageshadow="2"
     inkscape:window-width="959"
     inkscape:window-height="1002"
     id="namedview12"
     showgrid="true"
     inkscape:zoom="64"
     inkscape:cx="4.773631"
     inkscape:cy="10.055136"
     inkscape:window-x="959"
     inkscape:window-y="0"
     inkscape:window-maximized="0"
     inkscape:current-layer="g4">
    <inkscape:grid
       type="xygrid"
       id="grid3336" />
  </sodipodi:namedview>
  <g
     transform="translate(0 -1036.3622)"
     id="g4">
    <circle
       style="fill:#505359;fill-opacity:1;stroke:none"
       id="path4151-7"
       cx="8"
       cy="1044.3622"
       r="7" />
    <path
       style="fill:#212125;fill-opacity:1;stroke:none;stroke-width:1;stroke-miterlimit:4;stroke-dasharray:none;stroke-opacity:1"
       d="M 8 0.5 A 7.4998691 7.4998661 0 0 0 0.5 8 A 7.4998691 7.4998661 0 0 0 8 15.5 A 7.4998691 7.4998661 0 0 0 15.5 8 A 7.4998691 7.4998661 0 0 0 8 0.5 z M 8 1.5 A 6.4998866 6.499884 0 0 1 14.5 8 A 6.4998866 6.499884 0 0 1 8 14.5 A 6.4998866 6.499884 0 0 1 1.5 8 A 6.4998866 6.499884 0 0 1 8 1.5 z "
       transform="translate(0,1036.3622)"
       id="path4151-6" />
  </g>
</svg>
